{"title":"WhenGirlsPlay - Mia Malkova, Nicole Aniston - Gettin' Up An Appe","uid":10810785,"size":309769311,"categoryP":"porn","categoryS":"movies","magnet":"?xt=urn:btih:ec25ef7a7acc4b6599590b4276c9a1d31e118730&amp;dn=WhenGirlsPlay+-+Mia+Malkova%2C+Nicole+Aniston+-+Gettin%27+Up+An+Appe&amp;tr=udp%3A%2F%2Ftracker.openbittorrent.com%3A80&amp;tr=udp%3A%2F%2Fopen.demonii.com%3A1337&amp;tr=udp%3A%2F%2Ftracker.coppersurfer.tk%3A6969&amp;tr=udp%3A%2F%2Fexodus.desync.com%3A6969","seeders":1,"leechers":1,"uploader":"charon133","files":1,"time":1408426359,"description":"Prew:\n\n &lt;a href=&quot;\nhttp://gfycat.net/q5&quot; rel=&quot;nofollow&quot; target=&quot;_NEW&quot;&gt;\nhttp://gfycat.net/q5&lt;/a&gt;\n\n &lt;a href=&quot;\nhttp://gfycat.net/qK&quot; rel=&quot;nofollow&quot; target=&quot;_NEW&quot;&gt;\nhttp://gfycat.net/qK&lt;/a&gt;\n\n\n\nMediaInfo\n\nGeneral\nFormat : MPEG-4\nFormat profile : Base Media\nCodec ID : isom\nFile size : 295 MiB\nDuration : 18mn 33s\nOverall bit rate : 2225 Kbps\nWriting application : Lavf55.3.100\n\nVideo\nID : 1\nFormat : AVC\nFormat/Info : Advanced Video Codec\nFormat profile : &lt;a class=&quot;__cf_email__&quot; href=&quot;/cdn-cgi/l/email-protection&quot; data-cfemail=&quot;165e7f717e565a253827&quot;&gt;[email&amp;#160;protected]&lt;/a&gt;&lt;script cf-hash='f9e31' type=&quot;text/javascript&quot;&gt;\n/* &lt;![CDATA[ */!function(){try{var t=&quot;currentScript&quot;in document?document.currentScript:function(){for(var t=document.getElementsByTagName(&quot;script&quot;),e=t.length;e--;)if(t[e].getAttribute(&quot;cf-hash&quot;))return t[e]}();if(t&amp;&amp;t.previousSibling){var e,r,n,i,c=t.previousSibling,a=c.getAttribute(&quot;data-cfemail&quot;);if(a){for(e=&quot;&quot;,r=parseInt(a.substr(0,2),16),n=2;a.length-n;n+=2)i=parseInt(a.substr(n,2),16)^r,e+=String.fromCharCode(i);e=document.createTextNode(e),c.parentNode.replaceChild(e,c)}}}catch(u){}}();/* ]]&gt; */&lt;/script&gt;\nFormat settings, CABAC : Yes\nFormat settings, ReFrames : 5 frames\nCodec ID : avc1\nCodec ID/Info : Advanced Video Coding\nDuration : 18mn 33s\nBit rate : 2000 Kbps\nWidth : 854 pixels\nHeight : 480 pixels\nDisplay aspect ratio : 16:9\nOriginal display aspect ratio : 16:9\nFrame rate mode : Constant\nFrame rate : 29.970 fps\nColor space : YUV\nChroma subsampling : 4:2:0\nBit depth : 8 bits\nScan type : Progressive\nBits/(Pixel*Frame) : 0.163\nStream size : 265 MiB (90%)\nWriting library : x264 core 132 r2309 3b1f1f7\nTagged date : UTC 2014-08-11 16:41:02\n\nAudio\nID : 2\nFormat : AAC\nFormat/Info : Advanced Audio Codec\nFormat profile : LC\nCodec ID : 40\nDuration : 18mn 33s\nDuration_LastFrame : -9ms\nBit rate mode : Constant\nBit rate : 128 Kbps\nChannel(s) : 2 channels\nChannel positions : Front: L R\nSampling rate : 48.0 KHz\nCompression mode : Lossy\nStream size : 17.0 MiB (6%)\nTagged date : UTC 2014-08-11 16:41:02","torrent":{"xt":"urn:btih:ec25ef7a7acc4b6599590b4276c9a1d31e118730","amp;dn":"WhenGirlsPlay+-+Mia+Malkova%2C+Nicole+Aniston+-+Gettin%27+Up+An+Appe","amp;tr":["udp%3A%2F%2Ftracker.openbittorrent.com%3A80","udp%3A%2F%2Fopen.demonii.com%3A1337","udp%3A%2F%2Ftracker.coppersurfer.tk%3A6969","udp%3A%2F%2Fexodus.desync.com%3A6969"],"infoHash":"ec25ef7a7acc4b6599590b4276c9a1d31e118730","infoHashBuffer":{"type":"Buffer","data":[236,37,239,122,122,204,75,101,153,89,11,66,118,201,161,211,30,17,135,48]},"announce":[],"urlList":[]}}